# xmcd
#
# Track frame offsets: 
#        150
#        36446
#        45845
#        73343
#        93919
#        110539
#        135501
#
# Disc length: 2375 seconds
#
# Revision: 1
# Processed by: cddbd v1.5.2PL0 Copyright (c) Steve Scherf et al.
# Submitted via: ExactAudioCopy v0.99pb4
#
DISCID=5a094507
DTITLE=James Moody - The Teachers
DYEAR=1970
DGENRE=Jazz
TTITLE0=The Teachers
TTITLE1=Rest Sweetly, Brother Dove
TTITLE2=Unchained
TTITLE3=The New Spirit
TTITLE4=Hello Goodbye
TTITLE5=Behind Every Good Man
TTITLE6=Street Talk Suite
EXTD=YEAR: 1970
EXTT0=
EXTT1=
EXTT2=
EXTT3=
EXTT4=
EXTT5=
EXTT6=
PLAYORDER=
